<svg xmlns="http://www.w3.org/2000/svg" xmlns:xlink="http://www.w3.org/1999/xlink" id="e0g5h5i59tyqk1" shape-rendering="geometricPrecision" text-rendering="geometricPrecision" viewBox="0 0 82 82"><style>@keyframes e0g5h5i59tyqk4_tr__tr{0%{transform:translate(41px,41px) rotate(0deg)}}#e0g5h5i59tyqk4_tr{animation:e0g5h5i59tyqk4_tr__tr 10000ms linear infinite normal forwards}</style><defs><linearGradient id="e0g5h5i59tyqk2-fill" x1="-41" x2="41.052" y1="9.518" y2="9.047" gradientUnits="userSpaceOnUse" spreadMethod="pad"><stop id="e0g5h5i59tyqk2-fill-0" offset="0%" stop-color="#5897fb"/><stop id="e0g5h5i59tyqk2-fill-1" offset="100%" stop-color="#5897fb"/></linearGradient></defs><circle id="e0g5h5i59tyqk2" r="41" fill="url(#e0g5h5i59tyqk2-fill)" stroke="none" stroke-width="1" transform="matrix(1 0 0 1 41 41)"/><path id="e0g5h5i59tyqk3" fill="#FFF" stroke="none" stroke-width="1" d="M45.147000,29.351200C45.147000,28.469400,44.088500,28.019200,43.453300,28.630900L30.303700,41.293300C30.158700,41.433200,30.059900,41.611300,30.019900,41.805200C29.979900,41.999000,30.000500,42.199900,30.079000,42.382600C30.157500,42.565200,30.290500,42.721300,30.461100,42.831200C30.631700,42.941100,30.832300,42.999800,31.037600,43L36.853000,43L36.853000,52.648800C36.853000,53.530600,37.911500,53.980800,38.546700,53.369100L51.696300,40.706700C51.841300,40.566800,51.940100,40.388700,51.980100,40.194800C52.020100,40.001000,51.999500,39.800100,51.921000,39.617400C51.842500,39.434800,51.709500,39.278700,51.538900,39.168800C51.368300,39.058900,51.167700,39.000200,50.962400,39L45.147000,39L45.147000,29.351200Z"/><g id="e0g5h5i59tyqk4_tr" transform="translate(41,41) rotate(0)"><circle id="e0g5h5i59tyqk4" r="28" fill="none" stroke="#FFF" stroke-dasharray="10 6" stroke-linecap="round" stroke-linejoin="round" stroke-opacity=".37" stroke-width="3.2" transform="translate(0,0)"/></g></svg>