<svg xmlns="http://www.w3.org/2000/svg" xmlns:xlink="http://www.w3.org/1999/xlink" id="ezz1n1g3qqe1" shape-rendering="geometricPrecision" text-rendering="geometricPrecision" viewBox="0 0 82 82"><style>@keyframes ezz1n1g3qqe3_tr__tr{0%{transform:translate(41.284px,40.999994px) rotate(0deg);animation-timing-function:cubic-bezier(.47,0,.745,.715)}}#ezz1n1g3qqe3_tr{animation:ezz1n1g3qqe3_tr__tr 8000ms linear infinite normal forwards}</style><defs><linearGradient id="ezz1n1g3qqe2-fill" x1="-41" x2="41.052" y1="9.518" y2="9.047" gradientUnits="userSpaceOnUse" spreadMethod="pad"><stop id="ezz1n1g3qqe2-fill-0" offset="0%" stop-color="#5897fb"/><stop id="ezz1n1g3qqe2-fill-1" offset="100%" stop-color="#5897fb"/></linearGradient></defs><circle id="ezz1n1g3qqe2" r="41" fill="url(#ezz1n1g3qqe2-fill)" stroke="none" stroke-width="1" transform="matrix(1 0 0 1 41 41)"/><g id="ezz1n1g3qqe3_tr" transform="translate(41.284000,40.999994) rotate(0)"><g id="ezz1n1g3qqe3" transform="translate(-41.284000,-40.999994)"><path id="ezz1n1g3qqe4" fill="none" stroke="#FFF" stroke-linecap="round" stroke-linejoin="round" stroke-width="5" d="M68.568000,44.632900L61.292300,37.357200L54.016500,44.632900"/><path id="ezz1n1g3qqe5" fill="none" stroke="#FFF" stroke-linecap="round" stroke-linejoin="round" stroke-width="5" d="M14,39.176300L21.275700,46.452000L28.551500,39.176300"/><path id="ezz1n1g3qqe6" fill="none" stroke="#FFF" stroke-linecap="round" stroke-linejoin="round" stroke-width="5" d="M26.732500,54.724300C29.482300,57.638000,33.043400,59.659100,36.954800,60.526000C40.866200,61.392800,44.947700,61.065500,48.671000,59.586400C52.394200,58.107300,55.587700,55.544500,57.838000,52.229800C60.088200,48.915200,61.291600,45.001300,61.292200,40.995000L61.292200,37.357200"/><path id="ezz1n1g3qqe7" fill="none" stroke="#FFF" stroke-linecap="round" stroke-linejoin="round" stroke-width="5" d="M56.713400,28.270000C54.091300,25.093900,50.552900,22.804400,46.581300,21.714000C42.609700,20.623600,38.398300,20.785400,34.522000,22.177300C30.645700,23.569200,27.293500,26.123400,24.922800,29.491300C22.552100,32.859200,21.278400,36.876600,21.275800,40.995200L21.275800,46.459300"/></g></g></svg>