<svg xmlns="http://www.w3.org/2000/svg" xmlns:xlink="http://www.w3.org/1999/xlink" id="Layer_1" x="0" y="0" version="1.1" viewBox="0 0 404.7 130.1" xml:space="preserve" style="enable-background:new 0 0 404.7 130.1"><style type="text/css">.st0{fill:#0090ff}</style><g><path d="M163.1,117.7c-3.4,0-6.2,2.8-6.2,6.2c0,3.4,2.8,6.2,6.2,6.2c3.4,0,6.2-2.8,6.2-6.2 C169.3,120.5,166.5,117.7,163.1,117.7z" class="st0"/><path d="M123.9,117.7c-3.4,0-6.2,2.8-6.2,6.2c0,3.4,2.8,6.2,6.2,6.2c3.4,0,6.2-2.8,6.2-6.2 C130.1,120.5,127.3,117.7,123.9,117.7z" class="st0"/><path d="M84.7,117.7c-3.4,0-6.2,2.8-6.2,6.2c0,3.4,2.8,6.2,6.2,6.2c3.4,0,6.2-2.8,6.2-6.2 C90.9,120.5,88.1,117.7,84.7,117.7z" class="st0"/><path d="M45.4,117.7c-3.4,0-6.2,2.8-6.2,6.2c0,3.4,2.8,6.2,6.2,6.2c3.4,0,6.2-2.8,6.2-6.2 C51.6,120.5,48.9,117.7,45.4,117.7z" class="st0"/><path d="M6.2,117.7c-3.4,0-6.2,2.8-6.2,6.2c0,3.4,2.8,6.2,6.2,6.2c3.4,0,6.2-2.8,6.2-6.2 C12.4,120.5,9.6,117.7,6.2,117.7z" class="st0"/><path d="M163.1,78.4c-3.4,0-6.2,2.8-6.2,6.2c0,3.4,2.8,6.2,6.2,6.2c3.4,0,6.2-2.8,6.2-6.2 C169.3,81.2,166.5,78.4,163.1,78.4z" class="st0"/><path d="M123.9,78.4c-3.4,0-6.2,2.8-6.2,6.2c0,3.4,2.8,6.2,6.2,6.2c3.4,0,6.2-2.8,6.2-6.2 C130.1,81.2,127.3,78.4,123.9,78.4z" class="st0"/><path d="M84.7,78.4c-3.4,0-6.2,2.8-6.2,6.2c0,3.4,2.8,6.2,6.2,6.2c3.4,0,6.2-2.8,6.2-6.2 C90.9,81.2,88.1,78.4,84.7,78.4z" class="st0"/><path d="M45.4,78.4c-3.4,0-6.2,2.8-6.2,6.2c0,3.4,2.8,6.2,6.2,6.2c3.4,0,6.2-2.8,6.2-6.2 C51.6,81.2,48.9,78.4,45.4,78.4z" class="st0"/><path d="M6.2,78.4c-3.4,0-6.2,2.8-6.2,6.2c0,3.4,2.8,6.2,6.2,6.2c3.4,0,6.2-2.8,6.2-6.2C12.4,81.2,9.6,78.4,6.2,78.4z" class="st0"/><path d="M163.1,39.2c-3.4,0-6.2,2.8-6.2,6.2s2.8,6.2,6.2,6.2c3.4,0,6.2-2.8,6.2-6.2S166.5,39.2,163.1,39.2z" class="st0"/><path d="M123.9,39.2c-3.4,0-6.2,2.8-6.2,6.2s2.8,6.2,6.2,6.2c3.4,0,6.2-2.8,6.2-6.2S127.3,39.2,123.9,39.2z" class="st0"/><path d="M84.7,39.2c-3.4,0-6.2,2.8-6.2,6.2s2.8,6.2,6.2,6.2c3.4,0,6.2-2.8,6.2-6.2S88.1,39.2,84.7,39.2z" class="st0"/><path d="M45.4,39.2c-3.4,0-6.2,2.8-6.2,6.2s2.8,6.2,6.2,6.2c3.4,0,6.2-2.8,6.2-6.2S48.9,39.2,45.4,39.2z" class="st0"/><ellipse cx="6.2" cy="45.4" class="st0" rx="6.2" ry="6.2" transform="matrix(0.9232 -0.3844 0.3844 0.9232 -16.9888 5.8779)"/><path d="M163.1,0c-3.4,0-6.2,2.8-6.2,6.2s2.8,6.2,6.2,6.2c3.4,0,6.2-2.8,6.2-6.2S166.5,0,163.1,0z" class="st0"/><path d="M123.9,0c-3.4,0-6.2,2.8-6.2,6.2s2.8,6.2,6.2,6.2c3.4,0,6.2-2.8,6.2-6.2S127.3,0,123.9,0z" class="st0"/><path d="M84.7,0c-3.4,0-6.2,2.8-6.2,6.2s2.8,6.2,6.2,6.2c3.4,0,6.2-2.8,6.2-6.2S88.1,0,84.7,0z" class="st0"/><path d="M45.4,0c-3.4,0-6.2,2.8-6.2,6.2s2.8,6.2,6.2,6.2c3.4,0,6.2-2.8,6.2-6.2S48.9,0,45.4,0z" class="st0"/><path d="M6.2,0C2.8,0,0,2.8,0,6.2s2.8,6.2,6.2,6.2c3.4,0,6.2-2.8,6.2-6.2S9.6,0,6.2,0z" class="st0"/><path d="M398.5,117.7c-3.4,0-6.2,2.8-6.2,6.2c0,3.4,2.8,6.2,6.2,6.2s6.2-2.8,6.2-6.2 C404.7,120.5,401.9,117.7,398.5,117.7z" class="st0"/><path d="M359.2,117.7c-3.4,0-6.2,2.8-6.2,6.2c0,3.4,2.8,6.2,6.2,6.2c3.4,0,6.2-2.8,6.2-6.2 C365.4,120.5,362.7,117.7,359.2,117.7z" class="st0"/><path d="M320,117.7c-3.4,0-6.2,2.8-6.2,6.2c0,3.4,2.8,6.2,6.2,6.2s6.2-2.8,6.2-6.2C326.2,120.5,323.4,117.7,320,117.7z" class="st0"/><path d="M280.8,117.7c-3.4,0-6.2,2.8-6.2,6.2c0,3.4,2.8,6.2,6.2,6.2c3.4,0,6.2-2.8,6.2-6.2 C287,120.5,284.2,117.7,280.8,117.7z" class="st0"/><path d="M241.6,117.7c-3.4,0-6.2,2.8-6.2,6.2c0,3.4,2.8,6.2,6.2,6.2c3.4,0,6.2-2.8,6.2-6.2 C247.8,120.5,245,117.7,241.6,117.7z" class="st0"/><path d="M202.3,117.7c-3.4,0-6.2,2.8-6.2,6.2c0,3.4,2.8,6.2,6.2,6.2c3.4,0,6.2-2.8,6.2-6.2 C208.5,120.5,205.8,117.7,202.3,117.7z" class="st0"/><path d="M398.5,78.4c-3.4,0-6.2,2.8-6.2,6.2c0,3.4,2.8,6.2,6.2,6.2s6.2-2.8,6.2-6.2C404.7,81.2,401.9,78.4,398.5,78.4z" class="st0"/><path d="M359.2,78.4c-3.4,0-6.2,2.8-6.2,6.2c0,3.4,2.8,6.2,6.2,6.2c3.4,0,6.2-2.8,6.2-6.2 C365.4,81.2,362.7,78.4,359.2,78.4z" class="st0"/><path d="M320,78.4c-3.4,0-6.2,2.8-6.2,6.2c0,3.4,2.8,6.2,6.2,6.2s6.2-2.8,6.2-6.2C326.2,81.2,323.4,78.4,320,78.4z" class="st0"/><path d="M280.8,78.4c-3.4,0-6.2,2.8-6.2,6.2c0,3.4,2.8,6.2,6.2,6.2c3.4,0,6.2-2.8,6.2-6.2 C287,81.2,284.2,78.4,280.8,78.4z" class="st0"/><path d="M241.6,78.4c-3.4,0-6.2,2.8-6.2,6.2c0,3.4,2.8,6.2,6.2,6.2c3.4,0,6.2-2.8,6.2-6.2 C247.8,81.2,245,78.4,241.6,78.4z" class="st0"/><path d="M202.3,78.4c-3.4,0-6.2,2.8-6.2,6.2c0,3.4,2.8,6.2,6.2,6.2c3.4,0,6.2-2.8,6.2-6.2 C208.5,81.2,205.8,78.4,202.3,78.4z" class="st0"/><path d="M398.5,39.2c-3.4,0-6.2,2.8-6.2,6.2s2.8,6.2,6.2,6.2s6.2-2.8,6.2-6.2S401.9,39.2,398.5,39.2z" class="st0"/><ellipse cx="359.2" cy="45.4" class="st0" rx="6.2" ry="6.2" transform="matrix(0.9872 -0.1596 0.1596 0.9872 -2.6468 57.9045)"/><path d="M320,39.2c-3.4,0-6.2,2.8-6.2,6.2s2.8,6.2,6.2,6.2s6.2-2.8,6.2-6.2S323.4,39.2,320,39.2z" class="st0"/><circle cx="280.8" cy="45.4" r="6.2" class="st0"/><path d="M241.6,39.2c-3.4,0-6.2,2.8-6.2,6.2s2.8,6.2,6.2,6.2c3.4,0,6.2-2.8,6.2-6.2S245,39.2,241.6,39.2z" class="st0"/><path d="M202.3,39.2c-3.4,0-6.2,2.8-6.2,6.2s2.8,6.2,6.2,6.2c3.4,0,6.2-2.8,6.2-6.2S205.8,39.2,202.3,39.2z" class="st0"/><path d="M398.5,12.4c3.4,0,6.2-2.8,6.2-6.2S401.9,0,398.5,0s-6.2,2.8-6.2,6.2S395,12.4,398.5,12.4z" class="st0"/><path d="M359.2,0c-3.4,0-6.2,2.8-6.2,6.2s2.8,6.2,6.2,6.2c3.4,0,6.2-2.8,6.2-6.2S362.7,0,359.2,0z" class="st0"/><path d="M320,0c-3.4,0-6.2,2.8-6.2,6.2s2.8,6.2,6.2,6.2s6.2-2.8,6.2-6.2S323.4,0,320,0z" class="st0"/><path d="M280.8,0c-3.4,0-6.2,2.8-6.2,6.2s2.8,6.2,6.2,6.2c3.4,0,6.2-2.8,6.2-6.2S284.2,0,280.8,0z" class="st0"/><path d="M241.6,0c-3.4,0-6.2,2.8-6.2,6.2s2.8,6.2,6.2,6.2c3.4,0,6.2-2.8,6.2-6.2S245,0,241.6,0z" class="st0"/><path d="M202.3,0c-3.4,0-6.2,2.8-6.2,6.2s2.8,6.2,6.2,6.2c3.4,0,6.2-2.8,6.2-6.2S205.8,0,202.3,0z" class="st0"/></g></svg>